<mxfile modified="2020-01-10T22:16:03.135Z" host="www.draw.io" agent="Mozilla/5.0 (Macintosh; Intel Mac OS X 10_14_5) AppleWebKit/537.36 (KHTML, like Gecko) Chrome/79.0.3945.88 Safari/537.36" etag="CjXcfNlTxkI_4Ajvs6EY" version="12.5.1" type="github">
  <diagram id="6Eb5E7Y-S9DL16h1_7wh" name="Page-1">
    <mxGraphModel dx="819" dy="422" grid="1" gridSize="10" guides="1" tooltips="1" connect="1" arrows="1" fold="1" page="1" pageScale="1" pageWidth="850" pageHeight="1100" math="0" shadow="0">
      <root>
        <mxCell id="0"/>
        <mxCell id="1" parent="0"/>
        <mxCell id="yJ-hwqB_jbYcFbamZ0QM-2" value="1" style="rounded=0;whiteSpace=wrap;html=1;" parent="1" vertex="1">
          <mxGeometry x="60" y="140" width="120" height="60" as="geometry"/>
        </mxCell>
        <mxCell id="yJ-hwqB_jbYcFbamZ0QM-3" value="2" style="rounded=0;whiteSpace=wrap;html=1;" parent="1" vertex="1">
          <mxGeometry x="60" y="220" width="120" height="60" as="geometry"/>
        </mxCell>
        <mxCell id="yJ-hwqB_jbYcFbamZ0QM-4" value="3" style="rounded=0;whiteSpace=wrap;html=1;" parent="1" vertex="1">
          <mxGeometry x="60" y="300" width="120" height="60" as="geometry"/>
        </mxCell>
        <mxCell id="yJ-hwqB_jbYcFbamZ0QM-5" value="4" style="rounded=0;whiteSpace=wrap;html=1;" parent="1" vertex="1">
          <mxGeometry x="60" y="380" width="120" height="60" as="geometry"/>
        </mxCell>
        <mxCell id="yJ-hwqB_jbYcFbamZ0QM-6" value="5" style="rounded=0;whiteSpace=wrap;html=1;" parent="1" vertex="1">
          <mxGeometry x="60" y="460" width="120" height="60" as="geometry"/>
        </mxCell>
        <mxCell id="yJ-hwqB_jbYcFbamZ0QM-7" value="6" style="rounded=0;whiteSpace=wrap;html=1;" parent="1" vertex="1">
          <mxGeometry x="60" y="540" width="120" height="60" as="geometry"/>
        </mxCell>
        <mxCell id="yJ-hwqB_jbYcFbamZ0QM-14" value="1" style="rounded=0;whiteSpace=wrap;html=1;" parent="1" vertex="1">
          <mxGeometry x="345" y="140" width="120" height="60" as="geometry"/>
        </mxCell>
        <mxCell id="yJ-hwqB_jbYcFbamZ0QM-15" value="2" style="rounded=0;whiteSpace=wrap;html=1;" parent="1" vertex="1">
          <mxGeometry x="345" y="220" width="120" height="60" as="geometry"/>
        </mxCell>
        <mxCell id="yJ-hwqB_jbYcFbamZ0QM-16" value="3" style="rounded=0;whiteSpace=wrap;html=1;" parent="1" vertex="1">
          <mxGeometry x="345" y="300" width="120" height="60" as="geometry"/>
        </mxCell>
        <mxCell id="yJ-hwqB_jbYcFbamZ0QM-17" value="4" style="rounded=0;whiteSpace=wrap;html=1;" parent="1" vertex="1">
          <mxGeometry x="345" y="380" width="120" height="60" as="geometry"/>
        </mxCell>
        <mxCell id="yJ-hwqB_jbYcFbamZ0QM-18" value="5" style="rounded=0;whiteSpace=wrap;html=1;" parent="1" vertex="1">
          <mxGeometry x="345" y="460" width="120" height="60" as="geometry"/>
        </mxCell>
        <mxCell id="yJ-hwqB_jbYcFbamZ0QM-19" value="6" style="rounded=0;whiteSpace=wrap;html=1;" parent="1" vertex="1">
          <mxGeometry x="345" y="540" width="120" height="60" as="geometry"/>
        </mxCell>
        <mxCell id="yJ-hwqB_jbYcFbamZ0QM-20" value="" style="shape=flexArrow;endArrow=classic;html=1;exitX=1;exitY=0.5;exitDx=0;exitDy=0;entryX=0;entryY=0.5;entryDx=0;entryDy=0;fillColor=#d5e8d4;strokeColor=#82b366;" parent="1" source="yJ-hwqB_jbYcFbamZ0QM-2" target="yJ-hwqB_jbYcFbamZ0QM-15" edge="1">
          <mxGeometry width="50" height="50" relative="1" as="geometry">
            <mxPoint x="60" y="670" as="sourcePoint"/>
            <mxPoint x="110" y="620" as="targetPoint"/>
          </mxGeometry>
        </mxCell>
        <mxCell id="yJ-hwqB_jbYcFbamZ0QM-21" value="" style="shape=flexArrow;endArrow=classic;html=1;exitX=1;exitY=0.5;exitDx=0;exitDy=0;entryX=0;entryY=0.5;entryDx=0;entryDy=0;fillColor=#f8cecc;strokeColor=#b85450;" parent="1" source="yJ-hwqB_jbYcFbamZ0QM-4" target="yJ-hwqB_jbYcFbamZ0QM-14" edge="1">
          <mxGeometry width="50" height="50" relative="1" as="geometry">
            <mxPoint x="60" y="670" as="sourcePoint"/>
            <mxPoint x="110" y="620" as="targetPoint"/>
          </mxGeometry>
        </mxCell>
        <mxCell id="yJ-hwqB_jbYcFbamZ0QM-22" value="" style="shape=flexArrow;endArrow=classic;html=1;exitX=1;exitY=0.5;exitDx=0;exitDy=0;fillColor=#dae8fc;strokeColor=#6c8ebf;" parent="1" source="yJ-hwqB_jbYcFbamZ0QM-6" edge="1">
          <mxGeometry width="50" height="50" relative="1" as="geometry">
            <mxPoint x="60" y="670" as="sourcePoint"/>
            <mxPoint x="350" y="250" as="targetPoint"/>
          </mxGeometry>
        </mxCell>
        <mxCell id="yJ-hwqB_jbYcFbamZ0QM-23" value="" style="shape=flexArrow;endArrow=classic;html=1;exitX=1;exitY=0.5;exitDx=0;exitDy=0;entryX=0;entryY=0.5;entryDx=0;entryDy=0;fillColor=#ffe6cc;strokeColor=#d79b00;" parent="1" source="yJ-hwqB_jbYcFbamZ0QM-5" target="yJ-hwqB_jbYcFbamZ0QM-18" edge="1">
          <mxGeometry width="50" height="50" relative="1" as="geometry">
            <mxPoint x="60" y="670" as="sourcePoint"/>
            <mxPoint x="110" y="620" as="targetPoint"/>
          </mxGeometry>
        </mxCell>
        <mxCell id="yJ-hwqB_jbYcFbamZ0QM-24" value="" style="rounded=1;whiteSpace=wrap;html=1;fillColor=#f5f5f5;strokeColor=#666666;fontColor=#333333;" parent="1" vertex="1">
          <mxGeometry x="60" y="60" width="120" height="60" as="geometry"/>
        </mxCell>
        <mxCell id="yJ-hwqB_jbYcFbamZ0QM-25" value="Cat" style="text;html=1;strokeColor=none;fillColor=none;align=center;verticalAlign=middle;whiteSpace=wrap;rounded=0;" parent="1" vertex="1">
          <mxGeometry x="100" y="80" width="40" height="20" as="geometry"/>
        </mxCell>
        <mxCell id="yJ-hwqB_jbYcFbamZ0QM-27" value="" style="rounded=1;whiteSpace=wrap;html=1;fillColor=#f5f5f5;strokeColor=#666666;fontColor=#333333;" parent="1" vertex="1">
          <mxGeometry x="345" y="60" width="120" height="60" as="geometry"/>
        </mxCell>
        <mxCell id="yJ-hwqB_jbYcFbamZ0QM-28" value="Owner" style="text;html=1;strokeColor=none;fillColor=none;align=center;verticalAlign=middle;whiteSpace=wrap;rounded=0;" parent="1" vertex="1">
          <mxGeometry x="385" y="80" width="40" height="20" as="geometry"/>
        </mxCell>
        <mxCell id="yJ-hwqB_jbYcFbamZ0QM-49" value="1" style="rounded=0;whiteSpace=wrap;html=1;" parent="1" vertex="1">
          <mxGeometry x="560" y="140" width="120" height="60" as="geometry"/>
        </mxCell>
        <mxCell id="yJ-hwqB_jbYcFbamZ0QM-50" value="2" style="rounded=0;whiteSpace=wrap;html=1;" parent="1" vertex="1">
          <mxGeometry x="560" y="220" width="120" height="60" as="geometry"/>
        </mxCell>
        <mxCell id="yJ-hwqB_jbYcFbamZ0QM-51" value="3" style="rounded=0;whiteSpace=wrap;html=1;" parent="1" vertex="1">
          <mxGeometry x="560" y="300" width="120" height="60" as="geometry"/>
        </mxCell>
        <mxCell id="yJ-hwqB_jbYcFbamZ0QM-52" value="4" style="rounded=0;whiteSpace=wrap;html=1;" parent="1" vertex="1">
          <mxGeometry x="560" y="380" width="120" height="60" as="geometry"/>
        </mxCell>
        <mxCell id="yJ-hwqB_jbYcFbamZ0QM-53" value="5" style="rounded=0;whiteSpace=wrap;html=1;" parent="1" vertex="1">
          <mxGeometry x="560" y="460" width="120" height="60" as="geometry"/>
        </mxCell>
        <mxCell id="yJ-hwqB_jbYcFbamZ0QM-54" value="6" style="rounded=0;whiteSpace=wrap;html=1;" parent="1" vertex="1">
          <mxGeometry x="560" y="540" width="120" height="60" as="geometry"/>
        </mxCell>
        <mxCell id="yJ-hwqB_jbYcFbamZ0QM-55" value="1" style="rounded=0;whiteSpace=wrap;html=1;" parent="1" vertex="1">
          <mxGeometry x="1068" y="140" width="120" height="60" as="geometry"/>
        </mxCell>
        <mxCell id="yJ-hwqB_jbYcFbamZ0QM-56" value="2" style="rounded=0;whiteSpace=wrap;html=1;" parent="1" vertex="1">
          <mxGeometry x="1068" y="220" width="120" height="60" as="geometry"/>
        </mxCell>
        <mxCell id="yJ-hwqB_jbYcFbamZ0QM-57" value="3" style="rounded=0;whiteSpace=wrap;html=1;" parent="1" vertex="1">
          <mxGeometry x="1068" y="300" width="120" height="60" as="geometry"/>
        </mxCell>
        <mxCell id="yJ-hwqB_jbYcFbamZ0QM-58" value="4" style="rounded=0;whiteSpace=wrap;html=1;" parent="1" vertex="1">
          <mxGeometry x="1068" y="380" width="120" height="60" as="geometry"/>
        </mxCell>
        <mxCell id="yJ-hwqB_jbYcFbamZ0QM-59" value="5" style="rounded=0;whiteSpace=wrap;html=1;" parent="1" vertex="1">
          <mxGeometry x="1068" y="460" width="120" height="60" as="geometry"/>
        </mxCell>
        <mxCell id="yJ-hwqB_jbYcFbamZ0QM-60" value="6" style="rounded=0;whiteSpace=wrap;html=1;" parent="1" vertex="1">
          <mxGeometry x="1068" y="540" width="120" height="60" as="geometry"/>
        </mxCell>
        <mxCell id="yJ-hwqB_jbYcFbamZ0QM-61" value="" style="shape=flexArrow;endArrow=classic;html=1;exitX=0;exitY=0.5;exitDx=0;exitDy=0;entryX=1;entryY=0.5;entryDx=0;entryDy=0;fillColor=#d5e8d4;strokeColor=#82b366;" parent="1" source="yJ-hwqB_jbYcFbamZ0QM-69" target="yJ-hwqB_jbYcFbamZ0QM-50" edge="1">
          <mxGeometry width="50" height="50" relative="1" as="geometry">
            <mxPoint x="783" y="670" as="sourcePoint"/>
            <mxPoint x="833" y="620" as="targetPoint"/>
          </mxGeometry>
        </mxCell>
        <mxCell id="yJ-hwqB_jbYcFbamZ0QM-62" value="" style="shape=flexArrow;endArrow=classic;html=1;exitX=0;exitY=0.5;exitDx=0;exitDy=0;entryX=1;entryY=0.5;entryDx=0;entryDy=0;fillColor=#f8cecc;strokeColor=#b85450;" parent="1" source="yJ-hwqB_jbYcFbamZ0QM-71" target="yJ-hwqB_jbYcFbamZ0QM-52" edge="1">
          <mxGeometry width="50" height="50" relative="1" as="geometry">
            <mxPoint x="783" y="670" as="sourcePoint"/>
            <mxPoint x="833" y="620" as="targetPoint"/>
          </mxGeometry>
        </mxCell>
        <mxCell id="yJ-hwqB_jbYcFbamZ0QM-63" value="" style="shape=flexArrow;endArrow=classic;html=1;exitX=0;exitY=0.5;exitDx=0;exitDy=0;fillColor=#dae8fc;strokeColor=#6c8ebf;entryX=1;entryY=0.75;entryDx=0;entryDy=0;" parent="1" source="yJ-hwqB_jbYcFbamZ0QM-72" target="yJ-hwqB_jbYcFbamZ0QM-54" edge="1">
          <mxGeometry width="50" height="50" relative="1" as="geometry">
            <mxPoint x="783" y="670" as="sourcePoint"/>
            <mxPoint x="1073" y="250" as="targetPoint"/>
          </mxGeometry>
        </mxCell>
        <mxCell id="yJ-hwqB_jbYcFbamZ0QM-64" value="" style="shape=flexArrow;endArrow=classic;html=1;exitX=0;exitY=0.5;exitDx=0;exitDy=0;entryX=1;entryY=0.5;entryDx=0;entryDy=0;fillColor=#ffe6cc;strokeColor=#d79b00;" parent="1" source="yJ-hwqB_jbYcFbamZ0QM-74" target="yJ-hwqB_jbYcFbamZ0QM-52" edge="1">
          <mxGeometry width="50" height="50" relative="1" as="geometry">
            <mxPoint x="783" y="670" as="sourcePoint"/>
            <mxPoint x="833" y="620" as="targetPoint"/>
          </mxGeometry>
        </mxCell>
        <mxCell id="yJ-hwqB_jbYcFbamZ0QM-65" value="" style="rounded=1;whiteSpace=wrap;html=1;fillColor=#f5f5f5;strokeColor=#666666;fontColor=#333333;" parent="1" vertex="1">
          <mxGeometry x="560" y="60" width="120" height="60" as="geometry"/>
        </mxCell>
        <mxCell id="yJ-hwqB_jbYcFbamZ0QM-66" value="Cats" style="text;html=1;strokeColor=none;fillColor=none;align=center;verticalAlign=middle;whiteSpace=wrap;rounded=0;" parent="1" vertex="1">
          <mxGeometry x="600" y="80" width="40" height="20" as="geometry"/>
        </mxCell>
        <mxCell id="yJ-hwqB_jbYcFbamZ0QM-67" value="" style="rounded=1;whiteSpace=wrap;html=1;fillColor=#f5f5f5;strokeColor=#666666;fontColor=#333333;" parent="1" vertex="1">
          <mxGeometry x="1068" y="60" width="120" height="60" as="geometry"/>
        </mxCell>
        <mxCell id="yJ-hwqB_jbYcFbamZ0QM-68" value="Toys" style="text;html=1;strokeColor=none;fillColor=none;align=center;verticalAlign=middle;whiteSpace=wrap;rounded=0;" parent="1" vertex="1">
          <mxGeometry x="1108" y="80" width="40" height="20" as="geometry"/>
        </mxCell>
        <mxCell id="yJ-hwqB_jbYcFbamZ0QM-69" value="1" style="rounded=0;whiteSpace=wrap;html=1;" parent="1" vertex="1">
          <mxGeometry x="810" y="140" width="120" height="60" as="geometry"/>
        </mxCell>
        <mxCell id="yJ-hwqB_jbYcFbamZ0QM-71" value="2" style="rounded=0;whiteSpace=wrap;html=1;" parent="1" vertex="1">
          <mxGeometry x="810" y="300" width="120" height="60" as="geometry"/>
        </mxCell>
        <mxCell id="yJ-hwqB_jbYcFbamZ0QM-72" value="3" style="rounded=0;whiteSpace=wrap;html=1;" parent="1" vertex="1">
          <mxGeometry x="810" y="380" width="120" height="60" as="geometry"/>
        </mxCell>
        <mxCell id="yJ-hwqB_jbYcFbamZ0QM-74" value="4" style="rounded=0;whiteSpace=wrap;html=1;" parent="1" vertex="1">
          <mxGeometry x="810" y="540" width="120" height="60" as="geometry"/>
        </mxCell>
        <mxCell id="yJ-hwqB_jbYcFbamZ0QM-75" value="" style="rounded=1;whiteSpace=wrap;html=1;fillColor=#f5f5f5;strokeColor=#666666;fontColor=#333333;" parent="1" vertex="1">
          <mxGeometry x="810" y="60" width="120" height="60" as="geometry"/>
        </mxCell>
        <mxCell id="yJ-hwqB_jbYcFbamZ0QM-76" value="CatToys" style="text;html=1;strokeColor=none;fillColor=none;align=center;verticalAlign=middle;whiteSpace=wrap;rounded=0;" parent="1" vertex="1">
          <mxGeometry x="850" y="80" width="40" height="20" as="geometry"/>
        </mxCell>
        <mxCell id="yJ-hwqB_jbYcFbamZ0QM-77" value="" style="shape=flexArrow;endArrow=classic;html=1;exitX=1;exitY=0.5;exitDx=0;exitDy=0;entryX=0;entryY=0.5;entryDx=0;entryDy=0;fillColor=#ffe6cc;strokeColor=#d79b00;" parent="1" source="yJ-hwqB_jbYcFbamZ0QM-74" target="yJ-hwqB_jbYcFbamZ0QM-59" edge="1">
          <mxGeometry width="50" height="50" relative="1" as="geometry">
            <mxPoint x="820" y="580" as="sourcePoint"/>
            <mxPoint x="690" y="420" as="targetPoint"/>
          </mxGeometry>
        </mxCell>
        <mxCell id="yJ-hwqB_jbYcFbamZ0QM-78" value="" style="shape=flexArrow;endArrow=classic;html=1;exitX=1;exitY=0.5;exitDx=0;exitDy=0;fillColor=#dae8fc;strokeColor=#6c8ebf;entryX=0;entryY=0.5;entryDx=0;entryDy=0;" parent="1" source="yJ-hwqB_jbYcFbamZ0QM-72" target="yJ-hwqB_jbYcFbamZ0QM-59" edge="1">
          <mxGeometry width="50" height="50" relative="1" as="geometry">
            <mxPoint x="1068" y="402.5" as="sourcePoint"/>
            <mxPoint x="938" y="577.5" as="targetPoint"/>
          </mxGeometry>
        </mxCell>
        <mxCell id="yJ-hwqB_jbYcFbamZ0QM-79" value="" style="shape=flexArrow;endArrow=classic;html=1;exitX=1;exitY=0.5;exitDx=0;exitDy=0;entryX=0;entryY=0.5;entryDx=0;entryDy=0;fillColor=#f8cecc;strokeColor=#b85450;" parent="1" source="yJ-hwqB_jbYcFbamZ0QM-71" target="yJ-hwqB_jbYcFbamZ0QM-56" edge="1">
          <mxGeometry width="50" height="50" relative="1" as="geometry">
            <mxPoint x="820" y="340" as="sourcePoint"/>
            <mxPoint x="690" y="420" as="targetPoint"/>
          </mxGeometry>
        </mxCell>
        <mxCell id="yJ-hwqB_jbYcFbamZ0QM-80" value="" style="shape=flexArrow;endArrow=classic;html=1;exitX=1;exitY=0.5;exitDx=0;exitDy=0;entryX=0;entryY=0.5;entryDx=0;entryDy=0;fillColor=#d5e8d4;strokeColor=#82b366;" parent="1" source="yJ-hwqB_jbYcFbamZ0QM-69" target="yJ-hwqB_jbYcFbamZ0QM-56" edge="1">
          <mxGeometry width="50" height="50" relative="1" as="geometry">
            <mxPoint x="939" y="160" as="sourcePoint"/>
            <mxPoint x="809" y="240" as="targetPoint"/>
          </mxGeometry>
        </mxCell>
        <mxCell id="yJ-hwqB_jbYcFbamZ0QM-82" value="" style="shape=flexArrow;endArrow=classic;html=1;" parent="1" target="yJ-hwqB_jbYcFbamZ0QM-83" edge="1">
          <mxGeometry width="50" height="50" relative="1" as="geometry">
            <mxPoint x="217.5" y="120" as="sourcePoint"/>
            <mxPoint x="287.5" y="120" as="targetPoint"/>
          </mxGeometry>
        </mxCell>
        <mxCell id="yJ-hwqB_jbYcFbamZ0QM-83" value="owner_id" style="text;html=1;strokeColor=none;fillColor=none;align=center;verticalAlign=middle;whiteSpace=wrap;rounded=0;" parent="1" vertex="1">
          <mxGeometry x="268" y="110" width="53" height="20" as="geometry"/>
        </mxCell>
        <mxCell id="1kxSIReET4ISok6PMIqL-3" value="owner_id" style="text;html=1;strokeColor=none;fillColor=none;align=center;verticalAlign=middle;whiteSpace=wrap;rounded=0;" parent="1" vertex="1">
          <mxGeometry x="235" y="170" width="53" height="20" as="geometry"/>
        </mxCell>
        <mxCell id="yJ-hwqB_jbYcFbamZ0QM-85" value="" style="shape=flexArrow;endArrow=classic;html=1;" parent="1" target="yJ-hwqB_jbYcFbamZ0QM-86" edge="1">
          <mxGeometry width="50" height="50" relative="1" as="geometry">
            <mxPoint x="958" y="110" as="sourcePoint"/>
            <mxPoint x="1028" y="110" as="targetPoint"/>
          </mxGeometry>
        </mxCell>
        <mxCell id="yJ-hwqB_jbYcFbamZ0QM-86" value="toy_id" style="text;html=1;strokeColor=none;fillColor=none;align=center;verticalAlign=middle;whiteSpace=wrap;rounded=0;" parent="1" vertex="1">
          <mxGeometry x="1008" y="100" width="40" height="20" as="geometry"/>
        </mxCell>
        <mxCell id="yJ-hwqB_jbYcFbamZ0QM-89" value="" style="shape=flexArrow;endArrow=classic;html=1;" parent="1" edge="1">
          <mxGeometry width="50" height="50" relative="1" as="geometry">
            <mxPoint x="740" y="110" as="sourcePoint"/>
            <mxPoint x="690" y="110" as="targetPoint"/>
          </mxGeometry>
        </mxCell>
        <mxCell id="yJ-hwqB_jbYcFbamZ0QM-90" value="cat_id" style="text;html=1;strokeColor=none;fillColor=none;align=center;verticalAlign=middle;whiteSpace=wrap;rounded=0;" parent="1" vertex="1">
          <mxGeometry x="745" y="100" width="40" height="20" as="geometry"/>
        </mxCell>
        <mxCell id="yJ-hwqB_jbYcFbamZ0QM-94" value="one to many relationship" style="text;html=1;strokeColor=none;fillColor=none;align=center;verticalAlign=middle;whiteSpace=wrap;rounded=0;" parent="1" vertex="1">
          <mxGeometry x="170" y="20" width="183" height="20" as="geometry"/>
        </mxCell>
        <mxCell id="yJ-hwqB_jbYcFbamZ0QM-95" value="many to many relationship" style="text;html=1;strokeColor=none;fillColor=none;align=center;verticalAlign=middle;whiteSpace=wrap;rounded=0;" parent="1" vertex="1">
          <mxGeometry x="778.5" y="20" width="183" height="20" as="geometry"/>
        </mxCell>
        <mxCell id="yJ-hwqB_jbYcFbamZ0QM-96" value="" style="shape=link;html=1;width=17;fillColor=#e1d5e7;strokeColor=#9673a6;" parent="1" edge="1">
          <mxGeometry width="50" height="50" relative="1" as="geometry">
            <mxPoint x="520" y="600" as="sourcePoint"/>
            <mxPoint x="520" y="20" as="targetPoint"/>
          </mxGeometry>
        </mxCell>
        <mxCell id="1kxSIReET4ISok6PMIqL-1" value="Bed&lt;br&gt;cat_id" style="rounded=1;whiteSpace=wrap;html=1;" parent="1" vertex="1">
          <mxGeometry x="1290" y="380" width="120" height="60" as="geometry"/>
        </mxCell>
        <mxCell id="1kxSIReET4ISok6PMIqL-2" value="Cat&lt;br&gt;owner_id" style="rounded=1;whiteSpace=wrap;html=1;" parent="1" vertex="1">
          <mxGeometry x="1460" y="380" width="120" height="60" as="geometry"/>
        </mxCell>
        <mxCell id="1kxSIReET4ISok6PMIqL-5" value="Owner" style="rounded=1;whiteSpace=wrap;html=1;" parent="1" vertex="1">
          <mxGeometry x="1630" y="380" width="120" height="60" as="geometry"/>
        </mxCell>
        <mxCell id="1kxSIReET4ISok6PMIqL-6" value="" style="shape=flexArrow;endArrow=classic;html=1;entryX=0;entryY=0.5;entryDx=0;entryDy=0;exitX=1;exitY=0.5;exitDx=0;exitDy=0;" parent="1" source="1kxSIReET4ISok6PMIqL-1" target="1kxSIReET4ISok6PMIqL-2" edge="1">
          <mxGeometry width="50" height="50" relative="1" as="geometry">
            <mxPoint x="1080" y="670" as="sourcePoint"/>
            <mxPoint x="1130" y="620" as="targetPoint"/>
          </mxGeometry>
        </mxCell>
        <mxCell id="1kxSIReET4ISok6PMIqL-7" value="" style="shape=flexArrow;endArrow=classic;html=1;entryX=0;entryY=0.5;entryDx=0;entryDy=0;exitX=1;exitY=0.5;exitDx=0;exitDy=0;" parent="1" edge="1">
          <mxGeometry width="50" height="50" relative="1" as="geometry">
            <mxPoint x="1580" y="409" as="sourcePoint"/>
            <mxPoint x="1630" y="409" as="targetPoint"/>
          </mxGeometry>
        </mxCell>
        <mxCell id="1kxSIReET4ISok6PMIqL-8" value="" style="shape=flexArrow;endArrow=classic;html=1;entryX=0.5;entryY=1;entryDx=0;entryDy=0;exitX=0.5;exitY=1;exitDx=0;exitDy=0;" parent="1" source="1kxSIReET4ISok6PMIqL-1" target="1kxSIReET4ISok6PMIqL-5" edge="1">
          <mxGeometry width="50" height="50" relative="1" as="geometry">
            <mxPoint x="1080" y="670" as="sourcePoint"/>
            <mxPoint x="1130" y="620" as="targetPoint"/>
            <Array as="points">
              <mxPoint x="1520" y="530"/>
            </Array>
          </mxGeometry>
        </mxCell>
        <mxCell id="1kxSIReET4ISok6PMIqL-9" value="has_one_through" style="text;html=1;strokeColor=none;fillColor=none;align=center;verticalAlign=middle;whiteSpace=wrap;rounded=0;" parent="1" vertex="1">
          <mxGeometry x="1500" y="541" width="40" height="20" as="geometry"/>
        </mxCell>
        <mxCell id="1kxSIReET4ISok6PMIqL-10" value="belongs_to" style="text;html=1;strokeColor=none;fillColor=none;align=center;verticalAlign=middle;whiteSpace=wrap;rounded=0;" parent="1" vertex="1">
          <mxGeometry x="1400" y="350" width="40" height="20" as="geometry"/>
        </mxCell>
        <mxCell id="1kxSIReET4ISok6PMIqL-11" value="belongs_to" style="text;html=1;strokeColor=none;fillColor=none;align=center;verticalAlign=middle;whiteSpace=wrap;rounded=0;" parent="1" vertex="1">
          <mxGeometry x="1590" y="350" width="40" height="20" as="geometry"/>
        </mxCell>
        <mxCell id="1kxSIReET4ISok6PMIqL-12" value="" style="shape=flexArrow;endArrow=classic;html=1;entryX=0.5;entryY=1;entryDx=0;entryDy=0;exitX=0.5;exitY=1;exitDx=0;exitDy=0;" parent="1" source="yJ-hwqB_jbYcFbamZ0QM-54" target="yJ-hwqB_jbYcFbamZ0QM-60" edge="1">
          <mxGeometry width="50" height="50" relative="1" as="geometry">
            <mxPoint x="520" y="670" as="sourcePoint"/>
            <mxPoint x="570" y="620" as="targetPoint"/>
            <Array as="points">
              <mxPoint x="870" y="710"/>
            </Array>
          </mxGeometry>
        </mxCell>
        <mxCell id="1kxSIReET4ISok6PMIqL-13" value="has_many_through" style="text;html=1;strokeColor=none;fillColor=none;align=center;verticalAlign=middle;whiteSpace=wrap;rounded=0;" parent="1" vertex="1">
          <mxGeometry x="850" y="640" width="40" height="20" as="geometry"/>
        </mxCell>
      </root>
    </mxGraphModel>
  </diagram>
</mxfile>
